<svg width="64" height="64" viewBox="0 0 64 64" fill="none" xmlns="http://www.w3.org/2000/svg">
<g clip-path="url(#clip0_13_2)">
<path d="M63.06 30.925C59.066 29.7644 55.072 28.6024 51.078 27.439C50.5784 25.4642 49.7981 23.5713 48.761 21.818C50.752 18.166 52.751 14.514 54.745 10.862C55.294 9.86202 54.204 8.76902 53.203 9.31902C49.563 11.3164 45.9253 13.314 42.29 15.312C40.52 14.2449 38.6014 13.4462 36.597 12.942C35.41 8.90202 34.228 4.85102 33.038 0.807018C32.725 -0.267982 31.182 -0.271982 30.865 0.807018L27.329 12.954C25.3628 13.4563 23.4789 14.2383 21.735 15.276L10.705 9.24602C9.708 8.70202 8.61201 9.79202 9.163 10.792C11.183 14.463 13.193 18.135 15.213 21.802C14.1643 23.5628 13.3789 25.4677 12.882 27.456L0.957005 30.95C-0.115995 31.265 -0.122995 32.812 0.957005 33.125L12.885 36.595C13.3978 38.6181 14.2051 40.5547 15.281 42.343C13.2957 45.9724 11.3123 49.6017 9.33101 53.231C8.78201 54.23 9.87101 55.324 10.873 54.775C14.497 52.7837 18.1217 50.7934 21.747 48.804C23.5081 49.8539 25.4128 50.6415 27.401 51.142C28.565 55.121 29.732 59.092 30.894 63.065C31.213 64.141 32.759 64.143 33.07 63.065C34.224 59.097 35.383 55.128 36.535 51.16C38.5458 50.6571 40.472 49.8619 42.252 48.8L53.06 54.707C53.28 54.893 53.543 54.949 53.8 54.918C54.074 54.902 54.318 54.775 54.506 54.593C54.715 54.401 54.856 54.139 54.873 53.844C54.8908 53.7115 54.8803 53.5767 54.8424 53.4485C54.8045 53.3203 54.74 53.2016 54.653 53.1L48.73 42.31C49.7835 40.535 50.5735 38.6163 51.075 36.614L63.061 33.1C64.138 32.785 64.145 31.238 63.065 30.922" fill="#FBB041"/>
<path d="M31.794 13.979C41.716 13.979 49.753 22.019 49.753 31.938C49.753 41.855 41.713 49.895 31.794 49.895C21.878 49.895 13.836 41.855 13.836 31.938C13.836 22.021 21.876 13.979 31.794 13.979Z" fill="#F9EC21"/>
<path d="M37.983 35.707H37.057C37.005 35.707 36.975 35.724 36.934 35.73C36.882 35.737 36.837 35.739 36.793 35.757C36.7175 35.7865 36.6488 35.8311 36.591 35.888C36.577 35.889 36.564 35.902 36.553 35.913C34.315 38.095 31.382 38.592 28.59 37.155C27.09 36.384 27.214 35.706 25.61 35.706C24.954 35.706 24.709 36.467 25.106 36.923C28.724 41.099 34.867 41.099 38.487 36.923C38.881 36.468 38.638 35.707 37.983 35.707ZM30.339 28.589C29.653 26.716 28.099 24.923 25.948 24.964C23.948 25.003 22.738 27.123 22.083 28.728C21.675 29.728 23.298 30.162 23.701 29.175C24.121 28.145 24.74 27.005 25.872 26.66C27.171 26.263 28.359 28.045 28.719 29.035C29.091 30.045 30.712 29.607 30.339 28.589ZM33.25 28.57C33.936 26.699 35.492 24.906 37.641 24.947C39.651 24.985 40.853 27.105 41.507 28.71C41.911 29.71 40.294 30.143 39.89 29.156C39.471 28.124 38.851 26.988 37.716 26.64C36.421 26.244 35.232 28.029 34.868 29.017C34.501 30.027 32.88 29.589 33.25 28.57Z" fill="#D88B25"/>
</g>
<defs>
<clipPath id="clip0_13_2">
<rect width="64" height="64" fill="white"/>
</clipPath>
</defs>
</svg>
